<?xml version="1.0" encoding="utf-8"?>
<!-- Generator: Adobe Illustrator 16.0.0, SVG Export Plug-In . SVG Version: 6.00 Build 0)  -->
<!DOCTYPE svg PUBLIC "-//W3C//DTD SVG 1.1//EN" "http://www.w3.org/Graphics/SVG/1.1/DTD/svg11.dtd">
<svg version="1.1" id="Layer_1" xmlns="http://www.w3.org/2000/svg" xmlns:xlink="http://www.w3.org/1999/xlink" x="0px" y="0px"
	 width="612px" height="792px" viewBox="0 0 612 792" enable-background="new 0 0 612 792" xml:space="preserve">
<title>Aperture</title>
<path fill="#F08A5D" d="M258.188,147.375L412.969,300.59V147.375H258.188z M216.914,159.782l-121.289,90.39H306L216.914,159.782z
	 M401.625,501.188h153v-153L401.625,501.188z M542.672,307.547l-90.844-121.922V396L542.672,307.547z M57.375,288.422v153l153-153
	H57.375z M394.453,632.672l121.922-90.844H306L394.453,632.672z M69.328,484.453l90.844,121.922V396L69.328,484.453z
	 M412.969,355.503l-66.399-66.292h-81.138l-66.4,66.292v80.994l66.483,66.364c0.526,0,1.052-0.072,1.59-0.072h79.465l66.399-66.292
	V355.503z M198.398,491.732l0.024,152.893h153L198.398,491.732z"/>
</svg>
